<svg
  width="24"
  height="24"
  viewBox="0 0 24 24"
  fill="none"
  xmlns="http://www.w3.org/2000/svg"
>
  <path
    d="M16.9046 8.04356C17.9125 7.03184 19.5197 6.98068 20.5882 7.89228L20.7443 8.03623L20.8961 8.20015C21.7651 9.21841 21.7651 10.7239 20.8961 11.7422L20.7516 11.8988L12.5 20.1818C12.314 20.3686 12.0899 20.5116 11.8439 20.6017L11.6555 20.6592L7.95284 21.5716C7.54592 21.6718 7.17628 21.3374 7.211 20.9396L7.22832 20.8391L8.1787 17.1541C8.24274 16.9058 8.35889 16.6748 8.51862 16.4761L8.64644 16.3333L16.9046 8.04356ZM7.70903 2.67441L7.75928 2.77574L11.3376 11.9306L10.4112 12.8605L9.6048 10.7978H4.8084L3.55937 14.0135C3.45263 14.2879 3.16602 14.4394 2.88673 14.3852L2.78272 14.3552C2.50818 14.2484 2.35679 13.9619 2.41087 13.6825L2.44096 13.5786L6.64123 2.7767C6.82524 2.3035 7.45993 2.26917 7.70903 2.67441ZM7.20073 4.64506L5.2752 9.59775H9.1368L7.20073 4.64506Z"
    fill="#212121"
  />
</svg>