<svg width="266" height="135" viewBox="0 0 266 135" fill="none" xmlns="http://www.w3.org/2000/svg">
  <path d="M164 2.99994C212.494 2.99993 245.826 22.9776 256 34C262 40.5 265.594 51.5 261 60C239.763 99.2907 174.867 34.9723 155.835 73.7667C141.058 103.889 163.207 139.91 198.064 130.107C211.502 126.328 218.446 108.388 212.494 95.942C206.065 82.4995 186.846 76.0191 173.555 72.9178C137.858 64.5889 114.077 98.0268 81.7765 103.9C51.5989 109.386 29.1896 95.8684 6.33792 77.5864C4.38052 76.0204 5.38303 86.4395 5.38303 89.0454C5.38303 98.5984 3.47308 94.3586 3.47308 87.1356C3.47308 82.4902 1.02604 72.6134 7.29282 75.2521C11.8141 77.1557 21.3177 77.5864 26.3913 77.5864" stroke="#4A466E" stroke-width="5" stroke-linecap="round"/>
</svg>
