 <svg
  width="22"
  height="22"
  viewBox="0 0 22 22"
  fill="none"
  xmlns="http://www.w3.org/2000/svg"
>
  <path
    d="M0 9.81081C0 4.39252 4.39252 0 9.81081 0H11.991C17.4093 0 21.8018 4.39252 21.8018 9.81081V11.991C21.8018 17.4093 17.4093 21.8018 11.991 21.8018H9.81081C4.39252 21.8018 0 17.4093 0 11.991V9.81081Z"
    fill="#FAC5C5"
    fill-opacity="0.5"
  />
  <path
    d="M7.75381 6.98255C7.5407 6.76998 7.19569 6.76998 6.98258 6.98255C6.77001 7.19566 6.77001 7.54067 6.98258 7.75324L10.1302 10.9009L6.98312 14.0485C6.77 14.2611 6.77 14.6061 6.98312 14.8192C7.19568 15.0318 7.5407 15.0318 7.75381 14.8192L10.9009 11.6716L14.0485 14.8192C14.2616 15.0318 14.6067 15.0318 14.8192 14.8192C15.0323 14.6061 15.0323 14.2611 14.8192 14.0485L11.6721 10.9009L14.8192 7.75324C15.0323 7.54067 15.0323 7.19566 14.8192 6.98255C14.6067 6.76998 14.2616 6.76998 14.0485 6.98255L10.9009 10.1302L7.75381 6.98255Z"
    fill="#B30F0F"
  />
</svg>